<?xml version="1.0" standalone="no"?>
<!DOCTYPE svg PUBLIC "-//W3C//DTD SVG 20010904//EN"
 "http://www.w3.org/TR/2001/REC-SVG-20010904/DTD/svg10.dtd">
<svg version="1.0" xmlns="http://www.w3.org/2000/svg"
 width="300.000000pt" height="300.000000pt" viewBox="0 0 300.000000 300.000000"
 preserveAspectRatio="xMidYMid meet">
<metadata>
Created by potrace 1.14, written by Peter Selinger 2001-2017
</metadata>
<g transform="translate(0.000000,300.000000) scale(0.100000,-0.100000)"
fill="#000000" stroke="none">
<path d="M815 2140 c-75 -37 -80 -54 -80 -305 l0 -220 103 -3 102 -3 0 149 c0
184 -2 181 107 157 288 -61 515 -152 615 -245 l49 -45 21 -115 c11 -63 24
-119 28 -123 4 -5 59 -20 121 -33 163 -34 290 -71 307 -88 16 -15 41 -128 42
-183 l0 -33 -85 0 -85 0 0 -56 c0 -66 -10 -87 -49 -103 -24 -10 -34 -10 -59 3
-36 19 -42 33 -42 102 l0 54 -590 0 -590 0 0 -105 0 -105 513 0 512 0 20 -30
c37 -55 141 -110 210 -110 61 0 131 33 181 84 49 50 55 53 112 59 72 6 118 31
147 79 16 26 19 48 18 110 -5 173 -40 310 -94 372 -47 53 -101 77 -270 120
-71 18 -133 36 -138 42 -5 5 -13 37 -19 71 -32 187 -269 341 -688 448 -117 30
-337 75 -368 75 -6 0 -29 -9 -51 -20z"/>
</g>
</svg>
