<?xml version="1.0" standalone="no"?>
<!DOCTYPE svg PUBLIC "-//W3C//DTD SVG 20010904//EN"
 "http://www.w3.org/TR/2001/REC-SVG-20010904/DTD/svg10.dtd">
<svg version="1.0" xmlns="http://www.w3.org/2000/svg"
 width="300.000000pt" height="300.000000pt" viewBox="0 0 300.000000 300.000000"
 preserveAspectRatio="xMidYMid meet">
<metadata>
Created by potrace 1.14, written by Peter Selinger 2001-2017
</metadata>
<g transform="translate(0.000000,300.000000) scale(0.100000,-0.100000)"
fill="#000000" stroke="none">
<path d="M634 2295 c-90 -46 -89 -41 -92 -354 -3 -249 -1 -273 13 -267 9 3 64
6 121 6 l104 0 0 168 c0 223 -11 213 181 168 362 -85 660 -220 713 -324 7 -15
24 -85 37 -155 25 -140 25 -140 99 -151 64 -10 287 -63 364 -87 43 -13 70 -27
77 -41 14 -25 38 -159 39 -210 l0 -38 -100 0 -100 0 0 -66 c0 -59 -3 -68 -29
-95 -71 -70 -151 -14 -151 106 l0 55 -685 0 -685 0 0 -120 0 -120 599 0 c586
0 600 0 606 -20 12 -38 103 -108 170 -129 79 -26 97 -26 169 -1 80 27 121 54
157 104 30 43 31 43 104 49 40 3 86 12 103 21 42 22 80 70 88 113 10 55 -4
237 -26 337 -45 201 -93 244 -346 311 -76 21 -157 43 -178 49 l-39 11 -16 82
c-13 62 -26 95 -56 139 -134 195 -475 346 -1028 455 -81 16 -151 29 -155 29
-4 0 -30 -11 -58 -25z"/>
</g>
</svg>
