<?xml version="1.0" encoding="UTF-8"?>
<svg id="Layer_1" data-name="Layer 1" xmlns="http://www.w3.org/2000/svg" version="1.1" viewBox="0 0 24 24">
  <defs>
    <style>
      .cls-1 {
        fill: none;
        stroke: #fff;
        stroke-linecap: round;
        stroke-linejoin: round;
        stroke-width: 2px;
      }
    </style>
  </defs>
  <path class="cls-1" d="M20,5.7v6.3M20,5.7c0,1.5-3.6,2.7-8,2.7s-8-1.2-8-2.7M20,5.7c0-1.5-3.6-2.7-8-2.7s-8,1.2-8,2.7M20,12v6.1c0,1.6-3.6,2.9-8,2.9s-8-1.3-8-2.9v-6.1M20,12c0,1.5-3.6,2.7-8,2.7s-8-1.2-8-2.7M4,12v-6.3M16,11h0M16,17h0"/>
</svg>