<?xml version="1.0" encoding="UTF-8"?>
<svg id="Layer_1" data-name="Layer 1" xmlns="http://www.w3.org/2000/svg" version="1.1" viewBox="0 0 24 24">
  <defs>
    <style>
      .cls-1 {
        fill: none;
        stroke: #fff;
        stroke-linecap: round;
        stroke-linejoin: round;
        stroke-width: 2px;
      }
    </style>
  </defs>
  <path class="cls-1" d="M3,6.2c0-1.1,0-1.7.2-2.1.2-.4.5-.7.9-.9.4-.2,1-.2,2.1-.2h.6c1.1,0,1.7,0,2.1.2.4.2.7.5.9.9.2.4.2,1,.2,2.1v11.6c0,1.1,0,1.7-.2,2.1-.2.4-.5.7-.9.9-.4.2-1,.2-2.1.2h-.6c-1.1,0-1.7,0-2.1-.2-.4-.2-.7-.5-.9-.9-.2-.4-.2-1-.2-2.1V6.2Z"/>
  <path class="cls-1" d="M14,5.5c0-.5,0-.7,0-.9.2-.8.8-1.4,1.6-1.6.2,0,.4,0,.9,0h2c.5,0,.7,0,.9,0,.8.2,1.4.8,1.6,1.6,0,.2,0,.4,0,.9s0,.7,0,.9c-.2.8-.8,1.4-1.6,1.6-.2,0-.4,0-.9,0h-2c-.5,0-.7,0-.9,0-.8-.2-1.4-.8-1.6-1.6,0-.2,0-.4,0-.9Z"/>
  <path class="cls-1" d="M14,15.2c0-1.1,0-1.7.2-2.1.2-.4.5-.7.9-.9.4-.2,1-.2,2.1-.2h.6c1.1,0,1.7,0,2.1.2.4.2.7.5.9.9.2.4.2,1,.2,2.1v2.6c0,1.1,0,1.7-.2,2.1-.2.4-.5.7-.9.9-.4.2-1,.2-2.1.2h-.6c-1.1,0-1.7,0-2.1-.2-.4-.2-.7-.5-.9-.9-.2-.4-.2-1-.2-2.1v-2.6Z"/>
</svg>