<?xml version="1.0" encoding="UTF-8"?>
<svg id="Layer_1" data-name="Layer 1" xmlns="http://www.w3.org/2000/svg" version="1.1" viewBox="0 0 24 24">
  <defs>
    <style>
      .cls-1 {
        fill: none;
        stroke: #fff;
        stroke-linecap: round;
        stroke-linejoin: round;
        stroke-width: 2px;
      }
    </style>
  </defs>
  <path class="cls-1" d="M15.4,14h4.5c1.4,0,3.5,1.7,2,3-4.3,4-11.3,4-15.8,0M10,16h4.8c.8,0,1.3-.8.9-1.5-.5-.9-1.4-1.5-2.4-1.5h-1.1c-.1,0-.2,0-.4,0-1.8-.9-3.8-1.3-5.8-1M6,11.9c0-1-.9-1.9-2-1.9s-2,.9-2,2v5c0,1.1.9,2,2,2s2-.9,2-2h0M6,11.9s0,0,0,.1v4.9M19.5,3.6c.9.6,1.5,1.7,1.5,2.9,0,1.8-1.3,3.2-3,3.5M17,5.5c0,1.9-1.6,3.5-3.5,3.5s-3.5-1.6-3.5-3.5,1.6-3.5,3.5-3.5,3.5,1.6,3.5,3.5Z"/>
</svg>