<?xml version="1.0" encoding="UTF-8" standalone="no"?>
<svg xmlns="http://www.w3.org/2000/svg" xml:space="preserve" width="88.520309" height="77.53569">
  <g transform="matrix(1.25 0 0 -1.25 386.15469 96.6625)">
    <path fill="#fff" stroke="#000" stroke-width=".40000001" d="M-304.26372 77.061446h61.515c2.407 0 4.372-1.964 4.372-4.372V37.71345c0-2.408-1.965-4.372-4.372-4.372h-61.515c-2.408 0-4.372 1.964-4.372 4.372v34.975996c0 2.408 1.964 4.372 4.372 4.372z"/>
    <path fill="#006649" fill-rule="evenodd" d="m-242.76472 75.870246.181-.004.162-.013.16-.02.156-.028.155-.036.152-.043.148-.051.145-.057.141-.064.139-.071.134-.077.131-.084.126-.09.121-.096.117-.101.111-.106.108-.112.1-.117.096-.122.09-.126.084-.13.077-.134.07-.138.065-.142.057-.145.051-.148.043-.152.036-.154.028-.158.02-.159.013-.163.005-.18V37.70325l-.005-.18-.013-.163-.02-.159-.028-.158-.036-.154-.043-.151-.051-.149-.057-.145-.065-.141-.07-.138-.077-.135-.084-.13-.09-.126-.096-.121-.1-.117-.108-.112-.111-.107-.117-.101-.121-.095-.126-.09-.131-.084-.134-.078-.139-.071-.141-.064-.145-.057-.148-.051-.152-.043-.155-.036-.156-.027-.16-.021-.162-.013-.181-.004h-61.485l-.18.004-.162.013-.159.021-.158.027-.154.036-.151.043-.149.051-.145.057-.142.064-.137.071-.135.078-.13.084-.126.09-.122.095-.117.101-.112.107-.106.112-.102.117-.095.121-.09.126-.083.13-.078.135-.071.138-.064.141-.058.145-.05.149-.044.151-.035.154-.028.158-.02.159-.013.163-.004.18v34.945996l.004.18.013.163.02.159.028.158.035.154.044.152.05.148.058.145.064.142.071.138.078.134.083.13.09.126.095.122.102.117.106.112.112.106.117.101.122.096.126.09.13.084.135.077.137.071.142.064.145.057.149.051.151.043.154.036.158.028.159.02.162.013.18.004h61.485z"/>
    <path fill="#fff" fill-rule="evenodd" d="M-260.09181 69.466246v1.742h-6.479v-1.742h2.415v-6.998h1.681v6.998h2.383zm-8.006 1.742h-1.742v-8.74h1.742v8.74zm-3.545-8.74-2.718 4.553 2.474 4.156h-2.078l-1.467-2.475-1.528 2.475h-2.047l2.506-4.126-2.75-4.583h2.015l1.804 2.903 1.742-2.938 2.047.035zm-8.801 0v1.741h-4.766v2.079h2.628v1.741h-2.628v1.437h4.644v1.742h-6.356v-8.74h6.478zm37.38029-8.241004c.182-.181.257-.446.198-.694l-1.997-10.669c-.017-.165-.093-.327-.211-.447-.288-.289-.758-.291-1.047-.003-.046.044-.087.101-.119.154l-2.419 4.04-7.745-8.915-3.156 3.135 8.937 7.726-4.075 2.408c-.054.033-.111.073-.156.118-.29.287-.291.758-.004 1.047.118.119.279.196.445.214l10.653 2.07896c.248.061.513-.012.696-.193"/>
    <path fill="#ffd033" d="M-304.63192 32.95445h62.251c2.202 0 4.004-1.802 4.004-4.004v-9.326c0-2.201-1.802-4.003-4.004-4.003h-62.251c-2.202 0-4.004 1.802-4.004 4.003v9.326c0 2.202 1.802 4.004 4.004 4.004"/>
    <path fill-rule="evenodd" d="M-304.14152 31.953346h61.269c1.922 0 3.497-1.572 3.497-3.494v-8.343c0-1.922-1.575-3.496-3.497-3.496h-61.269c-1.924 0-3.496 1.574-3.496 3.496v8.343c0 1.922 1.572 3.494 3.496 3.494"/>
    <path fill="#ffd033" fill-rule="evenodd" d="M-303.77042 30.45445h60.528c1.301 0 2.365-1.064 2.365-2.366v-7.602c0-1.301-1.064-2.365-2.365-2.365h-60.528c-1.301 0-2.365 1.064-2.365 2.365v7.602c0 1.302 1.064 2.366 2.365 2.366"/>
    <path d="M-269.81642 20.00745v5.027l-2.428-5.027-2.397 5.027v-5.027h-1.445v8.235h1.445l2.397-4.883 2.428 4.883h1.445v-8.235h-1.445zm10.1709 5.721c0 .925-.491 1.734-1.272 2.167-.461.26-.837.347-1.473.347h-3.843v-8.235h1.502v3.236h2.341c.636 0 1.012.058 1.473.318.781.433 1.272 1.3 1.272 2.167m-1.474 0c0-.607-.491-1.012-1.213-1.012h-2.399v2.052h2.399c.722 0 1.213-.404 1.213-1.04m8.0327-5.721v3.612l-3.698-.029v-3.583h-1.475v8.235h1.475v-3.179h3.698v3.179h1.474v-8.235h-1.474z"/>
    <path fill="#fff" d="M-266.31452 49.13725c-.274.092-.413.092-.875.092h-2.62v-3.587h3.127c1.059 0 1.61.503 1.61 1.517 0 .875-.507 1.704-1.242 1.978m-.459 5.428h-3.036v-3.221h2.483c.599 0 .875.092 1.242.37.461.366.737.92.737 1.519 0 .873-.506 1.332-1.426 1.332m1.701-10.716c-.459-.185-1.242-.324-1.841-.324h-4.967v13.11h4.967c2.072 0 3.635-1.424 3.635-3.312 0-1.287-.597-2.253-1.839-2.945 1.379-.642 2.162-1.748 2.162-3.173s-.874-2.853-2.117-3.356m-30.25649 5.813992c-1.767-1.099-3.391-1.583-4.37-4.021h6.439v-2.117h-8.924c.045 1.519.363 2.763 1.104 4.002 2.3 3.845 5.751 3.421 5.751 5.473 0 .968-1.106 1.75-2.392 1.75-1.336 0-2.163-.644-2.393-1.839l-2.07.459c.459 2.16 2.162 3.497 4.463 3.497 2.484 0 4.461-1.749 4.461-3.912 0-1.568-.901-2.565-2.069-3.292m9.0858-6.369c-2.128 0-3.84 1.38-4.393 3.497l2.035.597c.322-1.286 1.202-1.978 2.449-1.978 1.388 0 2.36.968 2.36 2.302 0 .69-.278 1.332-.741 1.654-.323.233-.369.233-1.341.277h-.23v2.115-.044h.507c.833 0 1.294.459 1.294 1.286 0 1.013-.832 1.75-1.894 1.75-.879 0-1.526-.416-1.989-1.289l-1.943.736c.696 1.657 2.174 2.67 3.886 2.67 2.219 0 4.022-1.797 4.022-4.004 0-.783-.185-1.334-.739-2.163.971-.872 1.247-1.563 1.247-2.851 0-2.668-1.848-4.555-4.53-4.555"/>
    <path d="M-292.26752 19.86245c-1.016 0-2.031.347-2.757 1.011-.203.174-.348.318-.639.664l1.191.896c.58-.751 1.334-1.068 2.292-1.068 1.015 0 1.712.462 1.712 1.155 0 .405-.261.867-.639 1.069-.231.116-.493.174-.812.174h-.407v1.473h.349c.639 0 1.103.347 1.103.809 0 .492-.581.867-1.452.867-.696 0-1.335-.289-1.827-.809l-1.103 1.011c.812.838 1.828 1.272 3.018 1.272 1.654 0 2.872-.983 2.872-2.312 0-.549-.174-.925-.667-1.56.813-.723 1.044-1.156 1.044-1.936 0-1.531-1.421-2.716-3.278-2.716m10.12211 4.276992c0 1.733-.724 2.773-1.969 2.773-1.476 0-1.998-1.532-1.998-2.745 0-1.82.753-2.831 1.998-2.831 1.217 0 1.969 1.126 1.969 2.831v-.028zm-1.969-4.277c-2.462 0-3.474 2.109-3.474 4.277 0 2.166 1.042 4.247 3.474 4.247 2.462 0 3.446-2.139 3.446-4.219 0-2.109-.955-4.305-3.446-4.305"/>
  </g>
</svg>