<?xml version="1.0" encoding="UTF-8" standalone="no"?>
<svg
   xmlns:dc="http://purl.org/dc/elements/1.1/"
   xmlns:cc="http://creativecommons.org/ns#"
   xmlns:rdf="http://www.w3.org/1999/02/22-rdf-syntax-ns#"
   xmlns:svg="http://www.w3.org/2000/svg"
   xmlns="http://www.w3.org/2000/svg"
   xmlns:sodipodi="http://sodipodi.sourceforge.net/DTD/sodipodi-0.dtd"
   xmlns:inkscape="http://www.inkscape.org/namespaces/inkscape"
   width="74.429893"
   height="74.431252"
   viewBox="0 0 210.05775 210.06152"
   version="1.1"
   id="svg2"
   inkscape:version="0.48.2 r9819"
   sodipodi:docname="AJAX1.svg">
  <metadata
     id="metadata62">
    <rdf:RDF>
      <cc:Work
         rdf:about="">
        <dc:format>image/svg+xml</dc:format>
        <dc:type
           rdf:resource="http://purl.org/dc/dcmitype/StillImage" />
        <dc:title></dc:title>
      </cc:Work>
    </rdf:RDF>
  </metadata>
  <defs
     id="defs60" />
  <sodipodi:namedview
     pagecolor="#ffffff"
     bordercolor="#666666"
     borderopacity="1"
     objecttolerance="10"
     gridtolerance="10"
     guidetolerance="10"
     inkscape:pageopacity="0"
     inkscape:pageshadow="2"
     inkscape:window-width="1280"
     inkscape:window-height="1004"
     id="namedview58"
     showgrid="false"
     fit-margin-top="0"
     fit-margin-left="0"
     fit-margin-right="0"
     fit-margin-bottom="0"
     inkscape:zoom="8.0000001"
     inkscape:cx="41.235759"
     inkscape:cy="28.494524"
     inkscape:window-x="-8"
     inkscape:window-y="-8"
     inkscape:window-maximized="1"
     inkscape:current-layer="svg2" />
  <!-- draw the bicycle -->
  <!-- RIGHT -->
  <!-- LANE -->
  <!-- ONLY -->
  <path
     d="M 206.65025,96.805734 113.26995,3.43602 C 111.11095,1.262908 108.10881,-3.6983694e-5 105.03611,-3.6983694e-5 101.97047,-3.6983694e-5 98.97892,1.262908 96.79522,3.43602 L 3.4113897,96.805734 C 1.2418097,98.978844 -0.00702031,101.95982 2.9689291e-5,105.04663 0.02122969,108.11227 1.2488597,111.11088 3.4113897,113.28046 L 96.79522,206.64665 c 2.16253,2.16253 5.19289,3.41136 8.24795,3.41489 3.05153,-0.003 6.07483,-1.25236 8.23383,-3.41489 l 93.37325,-93.36266 c 2.79752,-2.79753 3.98991,-7.0097 3.13619,-10.86203 -0.50094,-2.21897 -1.72861,-3.866446 -3.13619,-5.616226"
     style="fill:#ffd033;fill-opacity:1;fill-rule:nonzero;stroke:none"
     id="path6132"
     inkscape:connector-curvature="0" />
  <path
     d="m 204.34308,110.97329 -93.36972,93.36619 c -1.56986,1.56281 -3.71828,2.45534 -5.93019,2.45534 -2.21192,0 -4.35681,-0.89253 -5.92667,-2.45534 L 5.7079797,110.96977 c -1.55223,-1.55223 -2.43417,-3.72886 -2.43417,-5.92667 0.007,-2.19781 0.889,-4.37797 2.43769,-5.930196 L 99.10944,5.718492 c 1.56281,-1.545167 3.73592,-2.430639 5.92667,-2.430639 2.19781,0 4.3815,0.885472 5.93725,2.430639 l 93.36972,93.397942 c 1.56633,1.569856 2.45181,3.714746 2.45181,5.926666 0,2.21544 -0.88548,4.36033 -2.45181,5.93019"
     style="fill:#000000;fill-opacity:1;fill-rule:evenodd;stroke:none"
     id="path6140"
     inkscape:connector-curvature="0" />
  <path
     d="m 201.12575,107.74891 c 0.70908,-0.70203 1.12183,-1.71451 1.12183,-2.70581 0,-0.98072 -0.41275,-2.02142 -1.12183,-2.71992 L 107.74192,8.94641 c -0.69497,-0.6985 -1.7145,-1.111251 -2.69875,-1.111251 -0.98778,0 -2.02142,0.412751 -2.72345,1.111251 L 8.9323697,102.32318 c -0.70556,0.70909 -1.09714,1.71803 -1.09714,2.71639 0.007,0.99836 0.39158,1.9932 1.10419,2.70581 l 93.3803003,93.39088 c 0.70203,0.6985 1.74272,1.11125 2.72345,1.11125 0.9913,0 2.00378,-0.41275 2.7058,-1.11125 l 93.37678,-93.38735 z"
     style="fill:#ffd033;fill-opacity:1;fill-rule:evenodd;stroke:none"
     id="path6144"
     inkscape:connector-curvature="0" />
  <path
     d="m 153.32681,89.640822 0,-4.173362 -11.98386,0 0,-7.083779 7.53181,0 0,-4.17689 -7.53181,0 0,-6.360585 11.17247,0 0,-4.085168 -15.25764,0 0,25.879784 16.06903,0 z m -19.09233,-7.440085 c 0,-10.174113 -12.16731,-6.995585 -12.5342,-11.811003 -0.17992,-2.360084 2.0955,-3.086806 3.99697,-2.991556 2.90689,0.09172 3.81706,2.268362 3.81706,2.268362 l 3.63008,-1.086556 c -1.27352,-3.182056 -3.72533,-5.270501 -7.35189,-5.270501 -4.62844,0 -8.08214,1.905 -8.08214,6.992057 0,4.268612 3.4537,5.813779 4.98828,6.448779 3.3655,1.361723 7.35895,1.908528 7.35895,5.355168 0,2.183695 -1.64042,3.817057 -3.99345,3.817057 -2.45533,0 -4.45205,-1.365251 -5.54214,-3.817057 l -3.89819,1.453445 c 1.72155,3.905251 4.98828,6.554613 9.44033,6.554613 2.17664,0 4.17336,-0.740834 5.62681,-2.014362 1.63336,-1.449917 2.54353,-3.54189 2.54353,-5.898446 m -24.26759,-5.450418 c 0,1.996723 -0.45509,4.540251 -0.99836,5.901974 -0.91017,2.268362 -2.08845,3.270251 -3.99698,3.270251 -1.63336,0 -2.71991,-0.635 -3.54189,-2.000251 -0.99836,-1.633361 -1.541635,-4.452056 -1.541635,-7.171974 0,-2.180167 0.363365,-4.540251 0.998365,-6.085418 0.91016,-2.268362 2.17664,-3.266723 4.17336,-3.175001 1.54516,0.08819 2.54353,0.635 3.3655,1.996723 0.99836,1.725084 1.54164,4.356807 1.54164,7.263696 m 4.08517,0 c 0,-3.270251 -0.635,-6.540501 -1.72156,-8.808863 -1.64042,-3.182056 -3.90525,-4.631973 -7.17903,-4.631973 -2.99156,0 -5.08,0.906639 -6.62164,2.906889 -1.728611,2.451806 -2.818695,6.265335 -2.818695,10.533947 0,3.086807 0.723195,6.536974 1.820334,8.717141 1.541639,3.178529 3.810001,4.646085 7.440081,4.646085 2.71992,0 4.81542,-0.924278 6.26887,-2.921001 1.81327,-2.271889 2.81164,-6.357057 2.81164,-10.442225 m -26.264316,0 c 0,1.996723 -0.455083,4.540251 -0.998361,5.901974 -0.910167,2.268362 -2.088445,3.270251 -3.996973,3.270251 -1.633362,0 -2.723445,-0.635 -3.54189,-2.000251 -0.998361,-1.633361 -1.545167,-4.452056 -1.545167,-7.171974 0,-2.180167 0.366889,-4.540251 1.001889,-6.085418 0.906639,-2.268362 2.17664,-3.266723 4.173362,-3.175001 1.545167,0.08819 2.543529,0.635 3.354918,1.996723 1.001889,1.725084 1.552222,4.356807 1.552222,7.263696 m 4.085168,0 c 0,-3.270251 -0.642056,-6.540501 -1.728612,-8.808863 -1.633361,-3.182056 -3.908778,-4.631973 -7.171974,-4.631973 -2.998611,0 -5.087056,0.906639 -6.628696,2.906889 -1.725083,2.451806 -2.818695,6.265335 -2.818695,10.533947 0,3.086807 0.73025,6.536974 1.82739,8.717141 1.534583,3.178529 3.810001,4.646085 7.440085,4.646085 2.719917,0 4.808362,-0.924278 6.261807,-2.921001 1.820334,-2.271889 2.818695,-6.357057 2.818695,-10.442225 m -20.365866,12.890503 0,-3.810001 -11.983864,0 0,-22.069783 -4.085168,0 0,25.879784 16.069032,0 z"
     style="fill:#000000;fill-opacity:1;fill-rule:evenodd;stroke:none"
     id="path5956"
     inkscape:connector-curvature="0" />
  <path
     d="m 164.97801,133.33942 0,-3.81001 -11.98739,0 0,-22.06978 -4.08164,0 0,25.87979 16.06903,0 z m -19.36045,0 0,-4.17689 -11.98386,0 0,-7.08026 7.53886,0 0,-4.17689 -7.53886,0 0,-6.36058 11.16894,0 0,-4.08517 -15.25411,0 0,25.87979 16.06903,0 z m -18.90184,-25.87979 -4.36033,0 -5.44336,17.25437 -5.53862,-17.25437 -4.26508,0 8.17033,25.87979 3.17501,0 8.26205,-25.87979 z m -28.613809,14.43567 -5.182307,0 2.638778,-7.26369 2.543529,7.26369 z m 8.350249,11.44412 -8.893527,-25.87979 -4.088696,0 -8.900585,25.87979 4.353279,0 2.550584,-7.2637 8.08214,0 2.536475,7.2637 4.36033,0 z M 78.924906,114.73038 c 0,1.08656 -0.638528,2.17664 -1.636889,2.71992 -0.635,0.35983 -1.090084,0.45508 -2.356556,0.45508 l -4.90714,0 0,-6.36058 4.90714,0 c 1.354667,0 1.721556,0.0917 2.356556,0.45508 0.998361,0.54328 1.636889,1.63336 1.636889,2.7305 m 4.624918,18.60904 -4.533196,-12.07912 c 2.363612,-1.08655 3.996973,-3.81 3.996973,-6.52992 0,-2.63877 -1.633361,-5.36222 -3.908778,-6.4523 -1.273528,-0.63853 -2.631723,-0.81845 -4.628446,-0.81845 l -8.537224,0 0,25.87979 4.085168,0 0,-11.25715 4.90714,0 4.173362,11.25715 4.445001,0 z m -22.256756,-7.71878 0,-5.17173 -8.812391,0 0,4.08517 4.727224,0 0,1.08656 c 0,2.36361 -1.908528,3.99697 -4.540252,3.99697 -1.541639,0 -2.726973,-0.63147 -3.541889,-2.08845 -0.818445,-1.63688 -1.273529,-4.36033 -1.273529,-7.08025 0,-2.18016 0.363362,-4.54025 0.998362,-6.08542 0.910167,-2.27188 2.275417,-3.18205 4.360334,-3.18205 2.000251,0 3.086807,0.81844 4.176891,3.09386 l 3.90525,-1.54517 c -1.728611,-4.09222 -4.085167,-5.72558 -8.082141,-5.72558 -2.906889,0 -5.083529,0.99836 -6.628696,2.90689 -1.728611,2.26836 -2.906889,6.36058 -2.906889,10.53747 0,3.175 0.635,6.35 1.725083,8.62542 1.54164,3.26672 3.817057,4.74134 7.722308,4.74134 4.720168,0 8.170335,-3.47487 8.170335,-8.19503"
     style="fill:#000000;fill-opacity:1;fill-rule:evenodd;stroke:none"
     id="path5960"
     inkscape:connector-curvature="0" />
</svg>
