<svg version="1.1" viewBox="0.95 0.95 24.1 24.1" xmlns="http://www.w3.org/2000/svg">
 <g stroke="#000">
  <rect x="1" y="1" width="24" height="24" ry="1.5" fill="#fff" stroke-width=".1"/>
  <rect x="1.6875" y="1.6875" width="22.625" height="22.625" ry=".8125" fill="none" stroke-width=".625"/>
 </g>
 <path d="m9 9v2.5h5a0.5 0.5 0 0 1 0.5 0.5v7.5h2.5v-8.5a2 2 0 0 0-2-2z"/>
 <path d="m10.279296875,6.962890625a0.5,0.5 0 0 1 0.73046875,0.634765625L9.6875,10.25l1.322265625,2.65234375a0.5,0.5 0 0 1-0.73046875,0.634765625L5.5,10.25Z"/>
 <path d="m22.5 13a9.5 9.5 0 0 1-19 0 9.5 9.5 0 0 1 19 0zm-16-6.5 13 13" fill="none" stroke="#a6192e" stroke-width="2"/>
</svg>
