<?xml version="1.0" encoding="UTF-8" standalone="no"?>
<!-- Created with Inkscape (http://www.inkscape.org/) -->

<svg
   xmlns:dc="http://purl.org/dc/elements/1.1/"
   xmlns:cc="http://creativecommons.org/ns#"
   xmlns:rdf="http://www.w3.org/1999/02/22-rdf-syntax-ns#"
   xmlns:svg="http://www.w3.org/2000/svg"
   xmlns="http://www.w3.org/2000/svg"
   xmlns:sodipodi="http://sodipodi.sourceforge.net/DTD/sodipodi-0.dtd"
   xmlns:inkscape="http://www.inkscape.org/namespaces/inkscape"
   width="66.028046"
   height="33.007435"
   id="svg2934"
   version="1.1"
   inkscape:version="0.48.2 r9819"
   sodipodi:docname="AJAX1.svg">
  <defs
     id="defs2936">
    <inkscape:perspective
       sodipodi:type="inkscape:persp3d"
       inkscape:vp_x="0 : 526.18109 : 1"
       inkscape:vp_y="0 : 1000 : 0"
       inkscape:vp_z="744.09448 : 526.18109 : 1"
       inkscape:persp3d-origin="372.04724 : 350.78739 : 1"
       id="perspective2942" />
    <inkscape:perspective
       id="perspective2924"
       inkscape:persp3d-origin="0.5 : 0.33333333 : 1"
       inkscape:vp_z="1 : 0.5 : 1"
       inkscape:vp_y="0 : 1000 : 0"
       inkscape:vp_x="0 : 0.5 : 1"
       sodipodi:type="inkscape:persp3d" />
  </defs>
  <sodipodi:namedview
     id="base"
     pagecolor="#ffffff"
     bordercolor="#666666"
     borderopacity="1.0"
     inkscape:pageopacity="0.0"
     inkscape:pageshadow="2"
     inkscape:zoom="5.2462853"
     inkscape:cx="24.610881"
     inkscape:cy="19.332361"
     inkscape:document-units="px"
     inkscape:current-layer="g2909"
     showgrid="false"
     inkscape:window-width="1280"
     inkscape:window-height="1004"
     inkscape:window-x="-8"
     inkscape:window-y="-8"
     inkscape:window-maximized="1"
     fit-margin-top="0"
     fit-margin-left="0"
     fit-margin-right="0"
     fit-margin-bottom="0" />
  <metadata
     id="metadata2939">
    <rdf:RDF>
      <cc:Work
         rdf:about="">
        <dc:format>image/svg+xml</dc:format>
        <dc:type
           rdf:resource="http://purl.org/dc/dcmitype/StillImage" />
        <dc:title></dc:title>
      </cc:Work>
    </rdf:RDF>
  </metadata>
  <g
     inkscape:label="Ebene 1"
     inkscape:groupmode="layer"
     id="layer1"
     transform="translate(1269.8773,3150.2796)">
    <g
       id="g3018"
       transform="translate(2,-2)">
      <g
         id="g2909"
         transform="matrix(0.80835983,0,0,0.80835983,-165.10178,-177.02766)">
        <path
           inkscape:connector-curvature="0"
           d="m -1292.9412,-3634.8225 -70.7575,0 c -3.0061,0 -5.4601,-2.4555 -5.4632,-5.4632 l 0.01,-29.9062 c 0,-3.0045 2.454,-5.4601 5.4632,-5.4632 l 70.7482,0 c 3.0046,0 5.4632,2.4586 5.4601,5.4601 l 0,29.9031 c 0,3.0046 -2.4586,5.4633 -5.4601,5.4633"
           style="fill:#f4911d;fill-opacity:1;fill-rule:nonzero;stroke:none"
           id="path3172" />
        <path
           inkscape:connector-curvature="0"
           d="m -1293.235,-3636.2419 -70.1714,0 c -2.3829,0 -4.3329,-1.9515 -4.3375,-4.3344 l 0.01,-29.3217 c 0,-2.383 1.9515,-4.3344 4.3344,-4.3344 l 70.1652,0 c 2.386,0 4.3344,1.9514 4.3344,4.3344 l 0,29.3186 c 0,2.3829 -1.9484,4.3344 -4.3313,4.3344"
           style="fill:#000000;fill-opacity:1;fill-rule:evenodd;stroke:none"
           id="path3180" />
        <path
           inkscape:connector-curvature="0"
           d="m -1293.2536,-3638.4285 -70.1373,0 c -1.1907,0 -2.1649,-0.9726 -2.1649,-2.1648 l 0,-29.2908 c 0,-1.1892 0.9727,-2.1649 2.1664,-2.1649 l 70.1312,0 c 1.1938,0 2.1696,0.9757 2.1665,2.1649 l 0,29.2877 c 0,1.1891 -0.9758,2.1648 -2.1665,2.1648"
           style="fill:#f4911d;fill-opacity:1;fill-rule:evenodd;stroke:none"
           id="path3184" />
        <path
           inkscape:connector-curvature="0"
           d="m -1299.7497,-3658.0685 -2.1015,-5.887 1.8788,-3.1823 -1.4984,0 -2.069,3.6261 0,-3.6261 -1.3051,0 0,9.0693 1.3051,0 0,-2.8963 0.8304,-1.5278 1.5896,4.4241 1.3701,0 z m -7.8616,-6.6509 c 0,0.7315 -0.4129,1.1443 -1.1768,1.1443 l -1.3391,0 0,-2.2916 1.3391,0 c 0.7005,0 1.1768,0.4469 1.1768,1.1473 m 1.2742,6.6509 -1.3067,-4.455 c 0.8598,-0.3201 1.3067,-1.115 1.3067,-2.1959 0,-1.4643 -0.9572,-2.4184 -2.3876,-2.4184 l -2.7061,0 0,9.0693 1.3036,0 0,-4.2648 1.2417,0 1.2108,4.2648 1.3376,0 z m -8.1477,-4.5509 c 0,1.0499 -0.063,1.5912 -0.2876,2.3226 -0.2227,0.7639 -0.5737,1.1133 -1.1134,1.1133 -0.5706,0 -0.9247,-0.3494 -1.1443,-1.1133 -0.1917,-0.7314 -0.2876,-1.302 -0.2876,-2.2932 0,-1.0144 0.063,-1.6222 0.2876,-2.3196 0.2196,-0.7669 0.5737,-1.1149 1.1443,-1.1149 0.5397,0 0.8907,0.348 1.1134,1.1459 0.1902,0.6664 0.2876,1.2401 0.2876,2.2592 m 1.2417,0 c 0,-1.3685 -0.1268,-2.2268 -0.5103,-3.1205 -0.4438,-1.1119 -1.0824,-1.5587 -2.1324,-1.5587 -1.0515,0 -1.6855,0.4468 -2.1664,1.5293 -0.3804,0.8597 -0.5072,1.7814 -0.5072,3.1499 0,1.401 0.1268,2.2623 0.5072,3.1499 0.4469,1.084 1.0855,1.5664 2.1664,1.5664 1.0175,0 1.6886,-0.4824 2.1324,-1.5664 0.3835,-0.8582 0.5103,-1.7489 0.5103,-3.1499 m -6.3972,-4.5184 -1.2711,0 -0.7979,4.8385 -0.8582,-4.8385 -1.0206,0 -0.8907,4.8385 -0.7639,-4.8385 -1.2711,0 1.4304,9.0693 1.1458,0 0.8598,-4.7411 0.8582,4.7411 1.1149,0 1.4644,-9.0693 z m -13.7485,4.5818 c 0,0.7005 -0.063,1.3376 -0.1268,1.9082 -0.1299,0.7005 -0.5397,1.3051 -1.3036,1.3051 l -1.0855,0 0,-6.524 1.0855,0 c 0.5706,0 0.9541,0.2876 1.1737,0.9247 0.1608,0.3835 0.2567,1.3669 0.2567,2.386 m 1.2726,-0.063 c 0,-0.7021 -0.094,-1.4953 -0.2211,-2.1664 -0.1593,-0.9201 -0.5428,-1.6222 -1.084,-2.0056 -0.317,-0.2506 -0.6974,-0.3464 -1.4613,-0.3464 l -2.3257,0 0,9.0693 2.5159,0 c 0.5072,0 0.9541,-0.1268 1.2711,-0.4145 0.8907,-0.7005 1.3051,-2.0349 1.3051,-4.1364 m -8.593,0.7963 -1.3051,0 0.6371,-2.6117 0.668,2.6117 z m 2.2592,3.7546 -2.2592,-9.0693 -1.2711,0 -2.2592,9.0693 1.3051,0 0.6031,-2.4819 1.9391,0 0.6371,2.4819 1.3051,0 z m -8.1461,-4.5509 c 0,1.0499 -0.063,1.5912 -0.2861,2.3226 -0.2242,0.7639 -0.5706,1.1133 -1.1149,1.1133 -0.5706,0 -0.9216,-0.3494 -1.1443,-1.1133 -0.1902,-0.7314 -0.2876,-1.302 -0.2876,-2.2932 0,-1.0144 0.063,-1.6222 0.2876,-2.3196 0.2227,-0.7669 0.5737,-1.1149 1.1443,-1.1149 0.5443,0 0.8907,0.348 1.1149,1.1459 0.1902,0.6664 0.2861,1.2401 0.2861,2.2592 m 1.2417,0 c 0,-1.3685 -0.1268,-2.2268 -0.5103,-3.1205 -0.4438,-1.1119 -1.0809,-1.5587 -2.1324,-1.5587 -1.0484,0 -1.6855,0.4468 -2.1618,1.5293 -0.3835,0.8597 -0.5103,1.7814 -0.5103,3.1499 0,1.401 0.1268,2.2623 0.5103,3.1499 0.4438,1.084 1.0809,1.5664 2.1618,1.5664 1.0175,0 1.6886,-0.4824 2.1324,-1.5664 0.3835,-0.8582 0.5103,-1.7489 0.5103,-3.1499 m -7.925,-2.1 c 0,0.7315 -0.4129,1.1443 -1.1783,1.1443 l -1.3345,0 0,-2.2916 1.3345,0 c 0.702,0 1.1783,0.4469 1.1783,1.1473 m 1.2742,6.6509 -1.3036,-4.455 c 0.8567,-0.3201 1.3036,-1.115 1.3036,-2.1959 0,-1.4643 -0.9541,-2.4184 -2.3891,-2.4184 l -2.703,0 0,9.0693 1.3051,0 0,-4.2648 1.2417,0 1.2077,4.2648 1.3376,0 z"
           style="fill:#000000;fill-opacity:1;fill-rule:evenodd;stroke:none"
           id="path3188" />
        <path
           inkscape:connector-curvature="0"
           d="m -1294.7334,-3645.8184 c 0,-1.3051 -0.7608,-2.2902 -2.5128,-3.3076 -0.6665,-0.3835 -0.8567,-0.6371 -0.8567,-1.084 0,-0.6047 0.4732,-1.0485 1.0809,-1.0485 0.5737,0 1.0175,0.4145 1.0515,1.0485 l 1.2371,0 c -0.029,-1.3655 -1.0144,-2.3551 -2.2886,-2.3551 -1.3051,0 -2.3226,1.05 -2.3226,2.3551 0,0.7979 0.3804,1.4953 1.1149,2.0056 1.8448,1.2417 1.3345,0.8907 1.5247,1.0809 0.5412,0.4144 0.7345,0.7979 0.7345,1.3051 0,0.7329 -0.5737,1.3716 -1.2757,1.3716 -0.8907,0 -1.2711,-0.7979 -1.2711,-1.5618 l -1.2742,0 c 0,1.4953 0.9541,2.8391 2.5453,2.8391 1.4025,0 2.5128,-1.1845 2.5128,-2.6489 m -6.139,2.4819 0,-1.2711 -3.3107,0 0,-2.9922 1.8788,0 0,-1.2386 -1.8788,0 0,-2.2933 2.9597,0 0,-1.2741 -4.2648,0 0,9.0693 4.6158,0 z m -5.856,0 0,-1.2077 -3.3107,0 0,-7.8616 -1.3051,0 0,9.0693 4.6158,0 z m -6.5874,-9.0693 -1.2742,0 0,9.0693 1.2742,0 0,-9.0693 z m -3.2473,9.0693 0,-9.0693 -1.3051,0 -1.684,5.0921 -1.6886,-5.0921 -1.3051,0 0,9.0693 1.3051,0 0,-5.0921 1.6886,5.0921 1.684,-5.0921 0,5.0921 1.3051,0 z m -12.029,-3.1793 c 0,-1.7196 -1.0175,-2.8963 -2.4834,-2.8963 -0.3464,0 -0.5706,0.033 -1.0175,0.1902 l 0.097,-1.9098 3.0556,0 0,-1.2741 -4.2679,0 -0.2196,4.5215 1.2417,0.1561 c 0.317,-0.286 0.6665,-0.4468 1.0809,-0.4468 0.7639,0 1.2417,0.6077 1.2417,1.5927 0,1.2432 -0.702,2.1355 -1.6886,2.1355 -0.4438,0 -0.7948,-0.1299 -1.2417,-0.4469 l -0.8582,0.9201 c 0.668,0.5103 1.4319,0.8041 2.2298,0.8041 1.6221,0 2.8298,-1.4381 2.8298,-3.3463 m -10.3744,-4.6793 0,-1.2107 -4.6158,0 0,1.2107 1.6561,0 0,7.8586 1.3051,0 0,-7.8586 1.6546,0 z m -5.1555,7.8586 -1.9731,-4.7087 1.8123,-4.3606 -1.367,0 -1.1458,2.737 -1.1443,-2.737 -1.3685,0 1.8463,4.3606 -1.9731,4.7087 1.3685,0 1.2711,-3.0865 1.2757,3.0865 1.3979,0 z m -6.1405,0 0,-1.2711 -3.3092,0 0,-2.9922 1.8742,0 0,-1.2386 -1.8742,0 0,-2.2933 2.9597,0 0,-1.2741 -4.2648,0 0,9.0693 4.6143,0 z m -6.5565,0 0,-9.0693 -1.3051,0 0,5.4431 -2.4819,-5.4431 -1.3051,0 0,9.0693 1.3051,0 0,-6.0756 2.7989,6.0756 0.9881,0 z"
           style="fill:#000000;fill-opacity:1;fill-rule:evenodd;stroke:none"
           id="path3200" />
      </g>
    </g>
  </g>
</svg>
