<?xml version="1.0" encoding="UTF-8" standalone="no"?>
<!-- Created with Inkscape (http://www.inkscape.org/) -->

<svg
   xmlns:dc="http://purl.org/dc/elements/1.1/"
   xmlns:cc="http://creativecommons.org/ns#"
   xmlns:rdf="http://www.w3.org/1999/02/22-rdf-syntax-ns#"
   xmlns:svg="http://www.w3.org/2000/svg"
   xmlns="http://www.w3.org/2000/svg"
   xmlns:sodipodi="http://sodipodi.sourceforge.net/DTD/sodipodi-0.dtd"
   xmlns:inkscape="http://www.inkscape.org/namespaces/inkscape"
   width="2160"
   height="1620.0001"
   id="svg2934"
   version="1.1"
   inkscape:version="0.48.2 r9819"
   sodipodi:docname="AJAX1.svg">
  <defs
     id="defs2936">
    <inkscape:perspective
       sodipodi:type="inkscape:persp3d"
       inkscape:vp_x="0 : 526.18109 : 1"
       inkscape:vp_y="0 : 1000 : 0"
       inkscape:vp_z="744.09448 : 526.18109 : 1"
       inkscape:persp3d-origin="372.04724 : 350.78739 : 1"
       id="perspective2942" />
    <inkscape:perspective
       id="perspective2924"
       inkscape:persp3d-origin="0.5 : 0.33333333 : 1"
       inkscape:vp_z="1 : 0.5 : 1"
       inkscape:vp_y="0 : 1000 : 0"
       inkscape:vp_x="0 : 0.5 : 1"
       sodipodi:type="inkscape:persp3d" />
  </defs>
  <sodipodi:namedview
     id="base"
     pagecolor="#ffffff"
     bordercolor="#666666"
     borderopacity="1.0"
     inkscape:pageopacity="0.0"
     inkscape:pageshadow="2"
     inkscape:zoom="0.17376232"
     inkscape:cx="11.194147"
     inkscape:cy="1966.954"
     inkscape:document-units="px"
     inkscape:current-layer="g2909"
     showgrid="false"
     inkscape:window-width="1280"
     inkscape:window-height="1004"
     inkscape:window-x="-8"
     inkscape:window-y="-8"
     inkscape:window-maximized="1"
     fit-margin-top="0"
     fit-margin-left="0"
     fit-margin-right="0"
     fit-margin-bottom="0" />
  <metadata
     id="metadata2939">
    <rdf:RDF>
      <cc:Work
         rdf:about="">
        <dc:format>image/svg+xml</dc:format>
        <dc:type
           rdf:resource="http://purl.org/dc/dcmitype/StillImage" />
        <dc:title />
      </cc:Work>
    </rdf:RDF>
  </metadata>
  <g
     inkscape:label="Ebene 1"
     inkscape:groupmode="layer"
     id="layer1"
     transform="translate(-63.82935,1049.0307)">
    <g
       id="g3018"
       transform="translate(2,-2)">
      <g
         id="g2909"
         transform="matrix(0.80835983,0,0,0.80835983,-165.10178,-177.02766)">
        <path
           inkscape:connector-curvature="0"
           style="fill:#f38f00;fill-rule:nonzero;stroke:none"
           d="m 2952.8077,760.796 c 0,92.2393 -74.7656,167.0049 -167.0048,167.0049 l -2338.06773,0 c -92.23383,0 -167.00483,-74.7656 -167.00483,-167.0049 l 0,-1670.0483 c 0,-92.2354 74.771,-167.0049 167.00483,-167.0049 l 2338.06773,0 c 92.2392,0 167.0048,74.7695 167.0048,167.0049 l 0,1670.0483 z"
           id="path11" />
        <path
           inkscape:connector-curvature="0"
           style="fill:#000000;fill-rule:nonzero;stroke:none"
           d="m 447.73517,886.04961 c -69.06594,0 -125.25363,-56.1941 -125.25363,-125.2537 l 0,-1670.0483 c 0,-69.0659 56.18769,-125.25361 125.25363,-125.25361 l 2338.06773,0 c 69.0596,0 125.2536,56.18771 125.2536,125.25361 l 0,1670.0483 c 0,69.0596 -56.194,125.2537 -125.2536,125.2537 l -2338.06773,0 z"
           id="path13" />
        <path
           inkscape:connector-curvature="0"
           style="fill:#f38f00;fill-rule:nonzero;stroke:none"
           d="m 447.73517,816.46426 c -30.6958,0 -55.66828,-24.9734 -55.66828,-55.6683 l 0,-1670.0484 c 0,-30.6958 24.97248,-55.6682 55.66828,-55.6682 l 2338.06763,0 c 30.6949,0 55.6683,24.9724 55.6683,55.6682 l 0,1670.0484 c 0,30.6949 -24.9734,55.6683 -55.6683,55.6683 l -2338.06763,0 z"
           id="path15" />
        <path
           inkscape:connector-curvature="0"
           style="fill:#000000;fill-rule:nonzero;stroke:none"
           d="m 1510.6885,-588.13158 c -14.098,-23.4394 -31.3273,-32.8149 -57.9569,-34.3767 -34.4633,-1.5633 -56.3935,15.6243 -72.0564,54.691 -10.9666,26.5646 -17.2293,67.1932 -17.2293,104.695 0,46.8774 9.3955,95.318 26.6249,123.446 14.1026,23.4394 32.8968,34.3782 61.0928,34.3782 32.8969,0 53.2591,-17.1906 68.9266,-56.2543 9.3971,-23.4394 17.2278,-67.1932 17.2278,-101.5699 0,-50.0025 -9.3986,-95.318 -26.6295,-125.0093 z m 48.5597,304.7096 c -25.0646,34.3783 -61.0928,50.0056 -108.0846,50.0056 -62.6562,0 -101.8188,-25.0043 -128.4483,-79.6938 -18.7943,-37.5049 -31.3258,-96.8829 -31.3258,-150.0121 0,-73.4419 18.7942,-139.0717 48.5582,-181.2636 26.6295,-34.3783 62.6577,-50.004 114.3488,-50.004 56.392,0 95.5531,25.0027 123.749,79.6937 18.7943,39.0653 29.7609,95.3196 29.7609,151.5739 0,70.3168 -17.2278,140.6336 -48.5582,179.7003 z"
           id="path17" />
        <path
           inkscape:connector-curvature="0"
           style="fill:#000000;fill-rule:nonzero;stroke:none"
           d="m 2315.112,-241.23008 -112.8829,-210.9549 -47.0241,57.8162 0,153.1387 -70.5442,0 0,-445.3477 70.5442,0 0,176.5767 141.0882,-176.5767 90.9248,0 -137.9492,173.4515 147.3509,271.8962 -81.5075,0 z"
           id="path19" />
        <path
           inkscape:connector-curvature="0"
           style="fill:#000000;fill-rule:nonzero;stroke:none"
           d="m 1901.1103,-608.44588 c -10.9327,-6.2518 -17.1799,-7.8121 -40.6224,-7.8121 l -84.3869,0 0,109.382 84.3869,0 c 21.8807,0 29.6897,-1.5618 40.6224,-7.8106 17.1953,-9.377 28.1434,-28.1294 28.1434,-46.8788 0,-18.7525 -10.9481,-37.505 -28.1434,-46.8805 z m 31.267,367.2143 -71.8894,-193.7674 -84.3869,0 0,193.7674 -70.3199,0 0,-445.3462 146.8978,0 c 34.3751,0 57.8177,3.1251 79.6984,14.0655 39.0606,18.7525 67.1885,65.6283 67.1885,110.9469 0,46.8788 -28.1279,93.7562 -68.7503,112.5087 l 78.1366,207.8251 -76.5748,0 z"
           id="path21" />
        <path
           inkscape:connector-curvature="0"
           style="fill:#000000;fill-rule:nonzero;stroke:none"
           d="m 1167.6544,-241.23308 -62.6949,0 -70.541,-285.9587 -68.97143,285.9587 -62.6995,0 -65.83392,-445.3463 72.10434,0 34.4834,234.3944 56.43063,-234.3944 68.97148,0 57.997,234.3944 34.4881,-234.3944 72.1043,0 -65.8385,445.3463 z"
           id="path23" />
        <path
           inkscape:connector-curvature="0"
           style="fill:#000000;fill-rule:nonzero;stroke:none"
           d="m 1906.4761,538.12272 -170.3434,-301.5844 0,301.5844 -70.3214,0 0,-445.346204 70.3214,0 162.5189,284.396904 0,-284.396904 70.3276,0 0,445.346204 -62.5031,0 z"
           id="path25" />
        <path
           inkscape:connector-curvature="0"
           style="fill:#000000;fill-rule:nonzero;stroke:none"
           d="m 1470.7187,191.22122 c -14.098,-23.4394 -31.3289,-32.8133 -57.9585,-34.3767 -34.4633,-1.5633 -56.3919,15.6243 -72.0548,54.691 -10.9667,26.5646 -17.2309,67.1932 -17.2309,104.695 0,46.8774 9.3956,95.318 26.6265,123.446 14.101,23.4394 32.8953,34.3813 61.0928,34.3813 32.8953,0 53.2575,-17.1937 68.9235,-56.2574 9.3987,-23.4394 17.2293,-67.1932 17.2293,-101.5699 0,-50.0024 -9.3986,-95.318 -26.6279,-125.0093 z m 48.5582,304.7019 c -25.0647,34.3906 -61.0929,50.0086 -108.0831,50.0086 -62.6577,0 -101.8204,-25.0043 -128.4499,-79.6891 -18.7942,-37.5049 -31.3258,-96.8829 -31.3258,-150.0121 0,-73.4419 18.7958,-139.0717 48.5598,-181.2636 26.628,-34.3783 62.6562,-50.004004 114.3472,-50.004004 56.3936,0 95.5531,25.002704 123.7491,79.695304 18.7957,39.0637 29.7609,95.3195 29.7609,151.5723 0,70.3184 -17.2294,140.6336 -48.5582,179.6926 z"
           id="path27" />
        <path
           inkscape:connector-curvature="0"
           style="fill:#000000;fill-rule:nonzero;stroke:none"
           d="m 881.44827,538.12272 0,-59.3794 203.15363,-315.6516 -185.96605,0 0,-70.316704 285.97875,0 0,42.188804 -206.27878,331.2757 206.27878,0 0,71.8832 -303.16633,0 z"
           id="path29" />
        <path
           inkscape:connector-curvature="0"
           style="fill:#000000;fill-rule:nonzero;stroke:none"
           d="m 2075.8622,538.12272 0,-445.346204 262.1822,0 0,70.318304 -191.9628,0 0,109.3851 129.5369,0 0,71.8786 -129.5369,0 0,121.8841 206.0035,0 0,71.8801 -276.2229,0 z"
           id="path31" />
      </g>
    </g>
  </g>
</svg>
